<?xml version="1.0" encoding="UTF-8"?>
<svg width="99px" height="99px" viewBox="0 0 99 99" version="1.1" xmlns="http://www.w3.org/2000/svg" xmlns:xlink="http://www.w3.org/1999/xlink">
    <title>Group 2</title>
    <g id="Page-2" stroke="none" stroke-width="1" fill="none" fill-rule="evenodd">
        <g id="Projects" transform="translate(-501.000000, -92.000000)">
            <g id="Group-2" transform="translate(501.000000, 92.000000)">
                <rect id="Rectangle" fill="#FFFFFF" x="0" y="0" width="99" height="99"></rect>
                <g id="Logo-Phantasma" transform="translate(6.000000, 44.000000)" fill="#231F20">
                    <path d="M5.93539908,0 C9.31223778,0 12,2.71576689 12,5.99969355 C12,9.28729761 9.31223778,12 5.93539908,12 C2.67805692,12 0,9.28729761 0,5.99969355 C0,2.71576689 2.67805692,0 5.93539908,0" id="Fill-1"></path>
                    <path d="M31.9291839,0 C35.3120145,0 38,2.71576689 38,5.99969355 C38,9.28729761 35.3120145,12 31.9291839,12 C28.6885907,12 26,9.28729761 26,5.99969355 C26,2.71576689 28.6885907,0 31.9291839,0" id="Fill-3"></path>
                    <path d="M56.9124994,0 C60.2974719,0 63,2.71576689 63,5.99969355 C63,9.28729761 60.2974719,12 56.9124994,12 C53.677701,12 51,9.28729761 51,5.99969355 C51,2.71576689 53.677701,0 56.9124994,0" id="Fill-5"></path>
                    <path d="M81.9484692,0 C85.3234313,0 88,2.71576689 88,5.99969355 C88,9.28729761 85.3234313,12 81.9484692,12 C78.6802061,12 76,9.28729761 76,5.99969355 C76,2.71576689 78.6802061,0 81.9484692,0" id="Fill-7"></path>
                </g>
            </g>
        </g>
    </g>
</svg>